# xmcd
#
# Track frame offsets:
#	150
#	23629
#	50585
#	75116
#	104426
#	147388
#	148176
#	179435
#	206072
#	250087
#
# Disc length: 3644 seconds
#
# Revision: 0
# Processed by: cddbd v1.5.2PL0 Copyright (c) Steve Scherf et al.
# Submitted via: audiograbber 1.83.01
#
DISCID=890e3a0a
DTITLE=ALBERT KING - ST-CHARLES THE PURPLE CARRIAGE 02.02.74
DYEAR=1900
DGENRE=
TTITLE0=I Believe
TTITLE1=Don't Burn Down The Bridge
TTITLE2=I Wanna Get Funky
TTITLE3=Crosscut Saw
TTITLE4=Stormy Monday
TTITLE5=Station ID
TTITLE6=I'll Play The Blues For You
TTITLE7=Breaking Up Somebody's Home
TTITLE8=Blues Power
TTITLE9=Born Under A Bad Sign
EXTD=
EXTT0=
EXTT1=
EXTT2=
EXTT3=
EXTT4=
EXTT5=
EXTT6=
EXTT7=
EXTT8=
EXTT9=
PLAYORDER=
